<?xml version="1.0" standalone="no"?>
<!DOCTYPE svg PUBLIC "-//W3C//DTD SVG 20010904//EN"
 "http://www.w3.org/TR/2001/REC-SVG-20010904/DTD/svg10.dtd">
<svg version="1.0" xmlns="http://www.w3.org/2000/svg"
 width="500.000000pt" height="500.000000pt" viewBox="0 0 500.000000 500.000000"
 preserveAspectRatio="xMidYMid meet">
<metadata>
Created by potrace 1.14, written by Peter Selinger 2001-2017
</metadata>
<g transform="translate(0.000000,500.000000) scale(0.100000,-0.100000)"
fill="#000000" stroke="none">
<path d="M0 2500 l0 -2500 2500 0 2500 0 0 2500 0 2500 -2500 0 -2500 0 0
-2500z m3210 1795 l0 -235 193 -2 192 -3 3 -107 3 -108 -196 0 -195 0 0 -1405
0 -1405 75 0 75 0 0 1320 0 1321 118 -3 117 -3 3 -1427 2 -1428 -315 0 -315 0
0 1860 0 1860 120 0 120 0 0 -235z m-1172 -1862 l2 -1623 -120 0 -120 0 0
1515 0 1515 -75 0 -75 0 0 -1515 0 -1515 -120 0 -120 0 0 1618 c0 890 3 1622
7 1625 4 4 144 6 312 5 l306 -3 3 -1622z m780 845 l2 -778 -120 0 -120 0 0
670 0 670 -75 0 -75 0 0 -1405 0 -1405 75 0 75 0 0 660 0 660 120 0 120 0 0
-770 0 -770 -315 0 -315 0 0 1625 0 1625 313 -2 312 -3 3 -777z"/>
</g>
</svg>
